<svg width="16" height="16" viewBox="0 0 16 16" fill="none" xmlns="http://www.w3.org/2000/svg">
<path d="M0.898212 8.77347L0.906832 8.76223L0.915452 8.751L0.934416 8.72532C1.07644 8.53802 1.2591 8.38055 1.47059 8.26308L5.62031 5.29548C5.67982 5.2455 5.74385 5.2004 5.81168 5.16066C5.92833 5.08873 6.05471 5.03152 6.18751 4.99053C6.53032 4.88301 6.90153 4.88301 7.24434 4.99053L7.2702 4.99856C7.42923 5.05119 7.57909 5.12527 7.715 5.21844L7.76672 5.25696L9.12525 6.21994L9.18042 6.25846L13.106 9.06878L13.1284 9.08483H13.1388L13.5077 9.34965C13.6362 9.42353 13.7843 9.46245 13.9353 9.462C14.0978 9.46233 14.2568 9.41791 14.3923 9.33434C14.5277 9.25076 14.6336 9.13176 14.6967 8.9923C14.7597 8.85284 14.777 8.69914 14.7464 8.55055C14.7159 8.40195 14.6388 8.26508 14.5249 8.15716L14.449 8.10259L14.4283 8.08654L10.7062 5.4303L10.6941 5.42227L10.6407 5.38536C10.5955 5.35264 10.559 5.31077 10.5339 5.26293C10.5088 5.21509 10.4957 5.16255 10.4957 5.1093C10.4957 5.05605 10.5088 5.00351 10.5339 4.95567C10.559 4.90783 10.5955 4.86596 10.6407 4.83324L10.6941 4.79312C10.7604 4.74443 10.8424 4.71796 10.9269 4.71796C11.0113 4.71796 11.0933 4.74443 11.1596 4.79312L11.201 4.82201L11.2113 4.83003L14.8059 7.398C14.841 7.41773 14.8749 7.43916 14.9076 7.4622C14.9291 7.47561 14.9498 7.49007 14.9697 7.50553H14.9818L14.9921 7.51356C15.0257 7.53874 15.058 7.56553 15.0886 7.59381C15.1703 7.66761 15.2431 7.7494 15.3059 7.83776L15.3266 7.86505C15.5112 8.13097 15.6026 8.44368 15.5882 8.76003C15.5739 9.07638 15.4544 9.38077 15.2463 9.63122C15.0382 9.88167 14.7517 10.0658 14.4264 10.1583C14.1011 10.2507 13.753 10.2469 13.4301 10.1473H13.4077H13.3888C13.2777 10.1108 13.1713 10.0629 13.0715 10.0045C12.9839 9.95577 12.9018 9.89876 12.8267 9.83436L8.677 6.86194L7.27193 5.85882L7.25813 5.84919C7.24831 5.8411 7.23795 5.83359 7.2271 5.82673C7.0894 5.73139 6.92382 5.67727 6.75233 5.67153C6.58083 5.6658 6.41151 5.70873 6.26682 5.79463L6.14441 5.88129L6.13407 5.89092L4.89967 6.77206L4.88588 6.78169L4.83071 6.82021L4.81864 6.82984L2.16537 8.72692L2.13261 8.74939L2.11537 8.76063L1.68954 9.06557C1.53421 9.2163 1.44283 9.41433 1.43233 9.62297C1.42183 9.83161 1.49293 10.0367 1.63245 10.2003C1.77196 10.3639 1.97044 10.4748 2.19111 10.5126C2.41178 10.5504 2.63967 10.5124 2.83257 10.4057L6.49784 7.7864L6.51508 7.77517L6.55473 7.74788C6.61962 7.70181 6.69897 7.67685 6.78058 7.67685C6.86219 7.67685 6.94154 7.70181 7.00643 7.74788L7.0478 7.77517L7.06332 7.7864L8.677 8.94038C8.71702 8.96891 8.75046 9.00465 8.77534 9.04545C8.80022 9.08626 8.81603 9.13131 8.82182 9.17792C8.82725 9.22482 8.82257 9.27226 8.80807 9.31745C8.79356 9.36265 8.76952 9.4047 8.73734 9.44114L8.69597 9.48768C8.63399 9.55716 8.54555 9.60164 8.44915 9.61181C8.35276 9.62198 8.25587 9.59706 8.17876 9.54225L6.7823 8.54395L3.55493 10.8503C3.47056 10.9232 3.37875 10.9882 3.28081 11.0445H3.27047C3.18011 11.0958 3.08489 11.1394 2.986 11.1745L2.92221 11.1954C2.742 11.2533 2.55258 11.2826 2.36191 11.282C2.04729 11.2818 1.73857 11.2025 1.46833 11.0525C1.19809 10.9025 0.976336 10.6874 0.826459 10.4299C0.676582 10.1723 0.604137 9.88194 0.616766 9.58928C0.629394 9.29662 0.726628 9.01255 0.898212 8.76705V8.77347Z" fill="#3C85FF"/>
</svg>
